# Tiled2Unity generated file. Do not modify by hand.
# Wavefront file for 'First_Map_mesh_0003.obj'

# Vertices (Count = 548)
v -688 -336 0
v -704 -336 0
v -704 -320 0
v -688 -320 0
v -672 -336 0
v -688 -336 0
v -688 -320 0
v -672 -320 0
v -512 -336 0
v -528 -336 0
v -528 -320 0
v -512 -320 0
v -496 -336 0
v -512 -336 0
v -512 -320 0
v -496 -320 0
v -480 -336 0
v -496 -336 0
v -496 -320 0
v -480 -320 0
v -464 -336 0
v -480 -336 0
v -480 -320 0
v -464 -320 0
v -448 -336 0
v -464 -336 0
v -464 -320 0
v -448 -320 0
v -432 -336 0
v -448 -336 0
v -448 -320 0
v -432 -320 0
v -416 -336 0
v -432 -336 0
v -432 -320 0
v -416 -320 0
v -400 -336 0
v -416 -336 0
v -416 -320 0
v -400 -320 0
v -384 -336 0
v -400 -336 0
v -400 -320 0
v -384 -320 0
v -672 -352 0
v -688 -352 0
v -688 -336 0
v -672 -336 0
v -592 -352 0
v -608 -352 0
v -608 -336 0
v -592 -336 0
v -576 -352 0
v -592 -352 0
v -592 -336 0
v -576 -336 0
v -560 -352 0
v -576 -352 0
v -576 -336 0
v -560 -336 0
v -544 -352 0
v -560 -352 0
v -560 -336 0
v -544 -336 0
v -528 -352 0
v -544 -352 0
v -544 -336 0
v -528 -336 0
v -512 -352 0
v -528 -352 0
v -528 -336 0
v -512 -336 0
v -496 -352 0
v -512 -352 0
v -512 -336 0
v -496 -336 0
v -480 -352 0
v -496 -352 0
v -496 -336 0
v -480 -336 0
v -464 -352 0
v -480 -352 0
v -480 -336 0
v -464 -336 0
v -448 -352 0
v -464 -352 0
v -464 -336 0
v -448 -336 0
v -432 -352 0
v -448 -352 0
v -448 -336 0
v -432 -336 0
v -416 -352 0
v -432 -352 0
v -432 -336 0
v -416 -336 0
v -400 -352 0
v -416 -352 0
v -416 -336 0
v -400 -336 0
v -384 -352 0
v -400 -352 0
v -400 -336 0
v -384 -336 0
v -672 -368 0
v -688 -368 0
v -688 -352 0
v -672 -352 0
v -384 -368 0
v -400 -368 0
v -400 -352 0
v -384 -352 0
v -688 -384 0
v -704 -384 0
v -704 -368 0
v -688 -368 0
v -672 -384 0
v -688 -384 0
v -688 -368 0
v -672 -368 0
v -576 -384 0
v -592 -384 0
v -592 -368 0
v -576 -368 0
v -384 -384 0
v -400 -384 0
v -400 -368 0
v -384 -368 0
v -688 -400 0
v -704 -400 0
v -704 -384 0
v -688 -384 0
v -672 -400 0
v -688 -400 0
v -688 -384 0
v -672 -384 0
v -576 -400 0
v -592 -400 0
v -592 -384 0
v -576 -384 0
v -496 -400 0
v -512 -400 0
v -512 -384 0
v -496 -384 0
v -384 -400 0
v -400 -400 0
v -400 -384 0
v -384 -384 0
v -688 -416 0
v -704 -416 0
v -704 -400 0
v -688 -400 0
v -672 -416 0
v -688 -416 0
v -688 -400 0
v -672 -400 0
v -496 -416 0
v -512 -416 0
v -512 -400 0
v -496 -400 0
v -464 -416 0
v -480 -416 0
v -480 -400 0
v -464 -400 0
v -384 -416 0
v -400 -416 0
v -400 -400 0
v -384 -400 0
v -688 -432 0
v -704 -432 0
v -704 -416 0
v -688 -416 0
v -672 -432 0
v -688 -432 0
v -688 -416 0
v -672 -416 0
v -464 -432 0
v -480 -432 0
v -480 -416 0
v -464 -416 0
v -384 -432 0
v -400 -432 0
v -400 -416 0
v -384 -416 0
v -688 -448 0
v -704 -448 0
v -704 -432 0
v -688 -432 0
v -672 -448 0
v -688 -448 0
v -688 -432 0
v -672 -432 0
v -448 -448 0
v -464 -448 0
v -464 -432 0
v -448 -432 0
v -384 -448 0
v -400 -448 0
v -400 -432 0
v -384 -432 0
v -688 -464 0
v -704 -464 0
v -704 -448 0
v -688 -448 0
v -672 -464 0
v -688 -464 0
v -688 -448 0
v -672 -448 0
v -528 -464 0
v -544 -464 0
v -544 -448 0
v -528 -448 0
v -448 -464 0
v -464 -464 0
v -464 -448 0
v -448 -448 0
v -384 -464 0
v -400 -464 0
v -400 -448 0
v -384 -448 0
v -688 -480 0
v -704 -480 0
v -704 -464 0
v -688 -464 0
v -672 -480 0
v -688 -480 0
v -688 -464 0
v -672 -464 0
v -640 -480 0
v -656 -480 0
v -656 -464 0
v -640 -464 0
v -528 -480 0
v -544 -480 0
v -544 -464 0
v -528 -464 0
v -416 -480 0
v -432 -480 0
v -432 -464 0
v -416 -464 0
v -384 -480 0
v -400 -480 0
v -400 -464 0
v -384 -464 0
v -688 -496 0
v -704 -496 0
v -704 -480 0
v -688 -480 0
v -672 -496 0
v -688 -496 0
v -688 -480 0
v -672 -480 0
v -640 -496 0
v -656 -496 0
v -656 -480 0
v -640 -480 0
v -480 -496 0
v -496 -496 0
v -496 -480 0
v -480 -480 0
v -416 -496 0
v -432 -496 0
v -432 -480 0
v -416 -480 0
v -384 -496 0
v -400 -496 0
v -400 -480 0
v -384 -480 0
v -688 -512 0
v -704 -512 0
v -704 -496 0
v -688 -496 0
v -672 -512 0
v -688 -512 0
v -688 -496 0
v -672 -496 0
v -480 -512 0
v -496 -512 0
v -496 -496 0
v -480 -496 0
v -384 -512 0
v -400 -512 0
v -400 -496 0
v -384 -496 0
v -688 -528 0
v -704 -528 0
v -704 -512 0
v -688 -512 0
v -672 -528 0
v -688 -528 0
v -688 -512 0
v -672 -512 0
v -384 -528 0
v -400 -528 0
v -400 -512 0
v -384 -512 0
v -688 -544 0
v -704 -544 0
v -704 -528 0
v -688 -528 0
v -672 -544 0
v -688 -544 0
v -688 -528 0
v -672 -528 0
v -384 -544 0
v -400 -544 0
v -400 -528 0
v -384 -528 0
v -688 -560 0
v -704 -560 0
v -704 -544 0
v -688 -544 0
v -672 -560 0
v -688 -560 0
v -688 -544 0
v -672 -544 0
v -656 -560 0
v -672 -560 0
v -672 -544 0
v -656 -544 0
v -640 -560 0
v -656 -560 0
v -656 -544 0
v -640 -544 0
v -624 -560 0
v -640 -560 0
v -640 -544 0
v -624 -544 0
v -608 -560 0
v -624 -560 0
v -624 -544 0
v -608 -544 0
v -592 -560 0
v -608 -560 0
v -608 -544 0
v -592 -544 0
v -576 -560 0
v -592 -560 0
v -592 -544 0
v -576 -544 0
v -560 -560 0
v -576 -560 0
v -576 -544 0
v -560 -544 0
v -544 -560 0
v -560 -560 0
v -560 -544 0
v -544 -544 0
v -528 -560 0
v -544 -560 0
v -544 -544 0
v -528 -544 0
v -512 -560 0
v -528 -560 0
v -528 -544 0
v -512 -544 0
v -496 -560 0
v -512 -560 0
v -512 -544 0
v -496 -544 0
v -480 -560 0
v -496 -560 0
v -496 -544 0
v -480 -544 0
v -464 -560 0
v -480 -560 0
v -480 -544 0
v -464 -544 0
v -448 -560 0
v -464 -560 0
v -464 -544 0
v -448 -544 0
v -432 -560 0
v -448 -560 0
v -448 -544 0
v -432 -544 0
v -416 -560 0
v -432 -560 0
v -432 -544 0
v -416 -544 0
v -400 -560 0
v -416 -560 0
v -416 -544 0
v -400 -544 0
v -384 -560 0
v -400 -560 0
v -400 -544 0
v -384 -544 0
v -688 -576 0
v -704 -576 0
v -704 -560 0
v -688 -560 0
v -672 -576 0
v -688 -576 0
v -688 -560 0
v -672 -560 0
v -656 -576 0
v -672 -576 0
v -672 -560 0
v -656 -560 0
v -640 -576 0
v -656 -576 0
v -656 -560 0
v -640 -560 0
v -624 -576 0
v -640 -576 0
v -640 -560 0
v -624 -560 0
v -608 -576 0
v -624 -576 0
v -624 -560 0
v -608 -560 0
v -592 -576 0
v -608 -576 0
v -608 -560 0
v -592 -560 0
v -576 -576 0
v -592 -576 0
v -592 -560 0
v -576 -560 0
v -560 -576 0
v -576 -576 0
v -576 -560 0
v -560 -560 0
v -544 -576 0
v -560 -576 0
v -560 -560 0
v -544 -560 0
v -528 -576 0
v -544 -576 0
v -544 -560 0
v -528 -560 0
v -512 -576 0
v -528 -576 0
v -528 -560 0
v -512 -560 0
v -496 -576 0
v -512 -576 0
v -512 -560 0
v -496 -560 0
v -480 -576 0
v -496 -576 0
v -496 -560 0
v -480 -560 0
v -464 -576 0
v -480 -576 0
v -480 -560 0
v -464 -560 0
v -448 -576 0
v -464 -576 0
v -464 -560 0
v -448 -560 0
v -432 -576 0
v -448 -576 0
v -448 -560 0
v -432 -560 0
v -416 -576 0
v -432 -576 0
v -432 -560 0
v -416 -560 0
v -400 -576 0
v -416 -576 0
v -416 -560 0
v -400 -560 0
v -384 -576 0
v -400 -576 0
v -400 -560 0
v -384 -560 0
v -688 -592 0
v -704 -592 0
v -704 -576 0
v -688 -576 0
v -672 -592 0
v -688 -592 0
v -688 -576 0
v -672 -576 0
v -656 -592 0
v -672 -592 0
v -672 -576 0
v -656 -576 0
v -640 -592 0
v -656 -592 0
v -656 -576 0
v -640 -576 0
v -624 -592 0
v -640 -592 0
v -640 -576 0
v -624 -576 0
v -608 -592 0
v -624 -592 0
v -624 -576 0
v -608 -576 0
v -592 -592 0
v -608 -592 0
v -608 -576 0
v -592 -576 0
v -576 -592 0
v -592 -592 0
v -592 -576 0
v -576 -576 0
v -560 -592 0
v -576 -592 0
v -576 -576 0
v -560 -576 0
v -544 -592 0
v -560 -592 0
v -560 -576 0
v -544 -576 0
v -528 -592 0
v -544 -592 0
v -544 -576 0
v -528 -576 0
v -512 -592 0
v -528 -592 0
v -528 -576 0
v -512 -576 0
v -496 -592 0
v -512 -592 0
v -512 -576 0
v -496 -576 0
v -480 -592 0
v -496 -592 0
v -496 -576 0
v -480 -576 0
v -464 -592 0
v -480 -592 0
v -480 -576 0
v -464 -576 0
v -448 -592 0
v -464 -592 0
v -464 -576 0
v -448 -576 0
v -432 -592 0
v -448 -592 0
v -448 -576 0
v -432 -576 0
v -416 -592 0
v -432 -592 0
v -432 -576 0
v -416 -576 0
v -400 -592 0
v -416 -592 0
v -416 -576 0
v -400 -576 0
v -384 -592 0
v -400 -592 0
v -400 -576 0
v -384 -576 0

# Texture cooridinates (Count = 16)
vt 0 0.9375
vt 0.0625 0.9375
vt 0.0625 1
vt 0 1
vt 0 0.875
vt 0.0625 0.875
vt 0.25 0.5
vt 0.3125 0.5
vt 0.3125 0.5625
vt 0.25 0.5625
vt 0.375 0.5625
vt 0.4375 0.5625
vt 0.4375 0.625
vt 0.375 0.625
vt 0.375 0.5
vt 0.4375 0.5

# Normal
vn 0 0 -1

# Mesh description
g First_Map_mesh_0003

# Faces
f 1/1/1 2/2/1 3/3/1 4/4/1
f 5/1/1 6/2/1 7/3/1 8/4/1
f 9/1/1 10/2/1 11/3/1 12/4/1
f 13/1/1 14/2/1 15/3/1 16/4/1
f 17/1/1 18/2/1 19/3/1 20/4/1
f 21/1/1 22/2/1 23/3/1 24/4/1
f 25/1/1 26/2/1 27/3/1 28/4/1
f 29/1/1 30/2/1 31/3/1 32/4/1
f 33/1/1 34/2/1 35/3/1 36/4/1
f 37/1/1 38/2/1 39/3/1 40/4/1
f 41/1/1 42/2/1 43/3/1 44/4/1
f 45/5/1 46/6/1 47/2/1 48/1/1
f 49/5/1 50/6/1 51/2/1 52/1/1
f 53/5/1 54/6/1 55/2/1 56/1/1
f 57/5/1 58/6/1 59/2/1 60/1/1
f 61/5/1 62/6/1 63/2/1 64/1/1
f 65/5/1 66/6/1 67/2/1 68/1/1
f 69/5/1 70/6/1 71/2/1 72/1/1
f 73/5/1 74/6/1 75/2/1 76/1/1
f 77/5/1 78/6/1 79/2/1 80/1/1
f 81/5/1 82/6/1 83/2/1 84/1/1
f 85/5/1 86/6/1 87/2/1 88/1/1
f 89/5/1 90/6/1 91/2/1 92/1/1
f 93/5/1 94/6/1 95/2/1 96/1/1
f 97/5/1 98/6/1 99/2/1 100/1/1
f 101/5/1 102/6/1 103/2/1 104/1/1
f 105/5/1 106/6/1 107/2/1 108/1/1
f 109/5/1 110/6/1 111/2/1 112/1/1
f 113/5/1 114/6/1 115/2/1 116/1/1
f 117/5/1 118/6/1 119/2/1 120/1/1
f 121/7/1 122/8/1 123/9/1 124/10/1
f 125/5/1 126/6/1 127/2/1 128/1/1
f 129/5/1 130/6/1 131/2/1 132/1/1
f 133/5/1 134/6/1 135/2/1 136/1/1
f 137/7/1 138/8/1 139/9/1 140/10/1
f 141/11/1 142/12/1 143/13/1 144/14/1
f 145/5/1 146/6/1 147/2/1 148/1/1
f 149/5/1 150/6/1 151/2/1 152/1/1
f 153/5/1 154/6/1 155/2/1 156/1/1
f 157/15/1 158/16/1 159/12/1 160/11/1
f 161/7/1 162/8/1 163/9/1 164/10/1
f 165/5/1 166/6/1 167/2/1 168/1/1
f 169/5/1 170/6/1 171/2/1 172/1/1
f 173/5/1 174/6/1 175/2/1 176/1/1
f 177/7/1 178/8/1 179/9/1 180/10/1
f 181/5/1 182/6/1 183/2/1 184/1/1
f 185/5/1 186/6/1 187/2/1 188/1/1
f 189/5/1 190/6/1 191/2/1 192/1/1
f 193/11/1 194/12/1 195/13/1 196/14/1
f 197/5/1 198/6/1 199/2/1 200/1/1
f 201/5/1 202/6/1 203/2/1 204/1/1
f 205/5/1 206/6/1 207/2/1 208/1/1
f 209/11/1 210/12/1 211/13/1 212/14/1
f 213/15/1 214/16/1 215/12/1 216/11/1
f 217/5/1 218/6/1 219/2/1 220/1/1
f 221/5/1 222/6/1 223/2/1 224/1/1
f 225/5/1 226/6/1 227/2/1 228/1/1
f 229/7/1 230/8/1 231/9/1 232/10/1
f 233/15/1 234/16/1 235/12/1 236/11/1
f 237/7/1 238/8/1 239/9/1 240/10/1
f 241/5/1 242/6/1 243/2/1 244/1/1
f 245/5/1 246/6/1 247/2/1 248/1/1
f 249/5/1 250/6/1 251/2/1 252/1/1
f 253/7/1 254/8/1 255/9/1 256/10/1
f 257/11/1 258/12/1 259/13/1 260/14/1
f 261/7/1 262/8/1 263/9/1 264/10/1
f 265/5/1 266/6/1 267/2/1 268/1/1
f 269/5/1 270/6/1 271/2/1 272/1/1
f 273/5/1 274/6/1 275/2/1 276/1/1
f 277/15/1 278/16/1 279/12/1 280/11/1
f 281/5/1 282/6/1 283/2/1 284/1/1
f 285/5/1 286/6/1 287/2/1 288/1/1
f 289/5/1 290/6/1 291/2/1 292/1/1
f 293/5/1 294/6/1 295/2/1 296/1/1
f 297/5/1 298/6/1 299/2/1 300/1/1
f 301/5/1 302/6/1 303/2/1 304/1/1
f 305/5/1 306/6/1 307/2/1 308/1/1
f 309/5/1 310/6/1 311/2/1 312/1/1
f 313/5/1 314/6/1 315/2/1 316/1/1
f 317/1/1 318/2/1 319/3/1 320/4/1
f 321/1/1 322/2/1 323/3/1 324/4/1
f 325/1/1 326/2/1 327/3/1 328/4/1
f 329/1/1 330/2/1 331/3/1 332/4/1
f 333/1/1 334/2/1 335/3/1 336/4/1
f 337/1/1 338/2/1 339/3/1 340/4/1
f 341/1/1 342/2/1 343/3/1 344/4/1
f 345/1/1 346/2/1 347/3/1 348/4/1
f 349/1/1 350/2/1 351/3/1 352/4/1
f 353/1/1 354/2/1 355/3/1 356/4/1
f 357/1/1 358/2/1 359/3/1 360/4/1
f 361/1/1 362/2/1 363/3/1 364/4/1
f 365/1/1 366/2/1 367/3/1 368/4/1
f 369/1/1 370/2/1 371/3/1 372/4/1
f 373/1/1 374/2/1 375/3/1 376/4/1
f 377/1/1 378/2/1 379/3/1 380/4/1
f 381/1/1 382/2/1 383/3/1 384/4/1
f 385/5/1 386/6/1 387/2/1 388/1/1
f 389/5/1 390/6/1 391/2/1 392/1/1
f 393/5/1 394/6/1 395/2/1 396/1/1
f 397/5/1 398/6/1 399/2/1 400/1/1
f 401/5/1 402/6/1 403/2/1 404/1/1
f 405/5/1 406/6/1 407/2/1 408/1/1
f 409/5/1 410/6/1 411/2/1 412/1/1
f 413/5/1 414/6/1 415/2/1 416/1/1
f 417/5/1 418/6/1 419/2/1 420/1/1
f 421/5/1 422/6/1 423/2/1 424/1/1
f 425/5/1 426/6/1 427/2/1 428/1/1
f 429/5/1 430/6/1 431/2/1 432/1/1
f 433/5/1 434/6/1 435/2/1 436/1/1
f 437/5/1 438/6/1 439/2/1 440/1/1
f 441/5/1 442/6/1 443/2/1 444/1/1
f 445/5/1 446/6/1 447/2/1 448/1/1
f 449/5/1 450/6/1 451/2/1 452/1/1
f 453/5/1 454/6/1 455/2/1 456/1/1
f 457/5/1 458/6/1 459/2/1 460/1/1
f 461/5/1 462/6/1 463/2/1 464/1/1
f 465/5/1 466/6/1 467/2/1 468/1/1
f 469/5/1 470/6/1 471/2/1 472/1/1
f 473/5/1 474/6/1 475/2/1 476/1/1
f 477/5/1 478/6/1 479/2/1 480/1/1
f 481/5/1 482/6/1 483/2/1 484/1/1
f 485/5/1 486/6/1 487/2/1 488/1/1
f 489/5/1 490/6/1 491/2/1 492/1/1
f 493/5/1 494/6/1 495/2/1 496/1/1
f 497/5/1 498/6/1 499/2/1 500/1/1
f 501/5/1 502/6/1 503/2/1 504/1/1
f 505/5/1 506/6/1 507/2/1 508/1/1
f 509/5/1 510/6/1 511/2/1 512/1/1
f 513/5/1 514/6/1 515/2/1 516/1/1
f 517/5/1 518/6/1 519/2/1 520/1/1
f 521/5/1 522/6/1 523/2/1 524/1/1
f 525/5/1 526/6/1 527/2/1 528/1/1
f 529/5/1 530/6/1 531/2/1 532/1/1
f 533/5/1 534/6/1 535/2/1 536/1/1
f 537/5/1 538/6/1 539/2/1 540/1/1
f 541/5/1 542/6/1 543/2/1 544/1/1
f 545/5/1 546/6/1 547/2/1 548/1/1

