# Tiled2Unity generated file. Do not modify by hand.
# Wavefront file for 'Level_Two_mesh_0004.obj'

# Vertices (Count = 16)
v -784 -544 0
v -800 -544 0
v -800 -528 0
v -784 -528 0
v -592 -544 0
v -608 -544 0
v -608 -528 0
v -592 -528 0
v -784 -560 0
v -800 -560 0
v -800 -544 0
v -784 -544 0
v -592 -560 0
v -608 -560 0
v -608 -544 0
v -592 -544 0

# Texture cooridinates (Count = 6)
vt 0.375 0.5625
vt 0.4375 0.5625
vt 0.4375 0.625
vt 0.375 0.625
vt 0.375 0.5
vt 0.4375 0.5

# Normal
vn 0 0 -1

# Mesh description
g Level_Two_mesh_0004

# Faces
f 1/1/1 2/2/1 3/3/1 4/4/1
f 5/1/1 6/2/1 7/3/1 8/4/1
f 9/5/1 10/6/1 11/2/1 12/1/1
f 13/5/1 14/6/1 15/2/1 16/1/1

