# Tiled2Unity generated file. Do not modify by hand.
# Wavefront file for 'First_Stage_mesh_0002.obj'

# Vertices (Count = 272)
v -320 -464 0
v -336 -464 0
v -336 -448 0
v -320 -448 0
v -336 -464 0
v -352 -464 0
v -352 -448 0
v -336 -448 0
v -352 -464 0
v -368 -464 0
v -368 -448 0
v -352 -448 0
v -368 -464 0
v -384 -464 0
v -384 -448 0
v -368 -448 0
v -384 -464 0
v -400 -464 0
v -400 -448 0
v -384 -448 0
v -320 -480 0
v -336 -480 0
v -336 -464 0
v -320 -464 0
v -336 -480 0
v -352 -480 0
v -352 -464 0
v -336 -464 0
v -352 -480 0
v -368 -480 0
v -368 -464 0
v -352 -464 0
v -368 -480 0
v -384 -480 0
v -384 -464 0
v -368 -464 0
v -384 -480 0
v -400 -480 0
v -400 -464 0
v -384 -464 0
v -576 -480 0
v -592 -480 0
v -592 -464 0
v -576 -464 0
v -592 -480 0
v -608 -480 0
v -608 -464 0
v -592 -464 0
v -608 -480 0
v -624 -480 0
v -624 -464 0
v -608 -464 0
v -624 -480 0
v -640 -480 0
v -640 -464 0
v -624 -464 0
v -320 -496 0
v -336 -496 0
v -336 -480 0
v -320 -480 0
v -336 -496 0
v -352 -496 0
v -352 -480 0
v -336 -480 0
v -352 -496 0
v -368 -496 0
v -368 -480 0
v -352 -480 0
v -368 -496 0
v -384 -496 0
v -384 -480 0
v -368 -480 0
v -384 -496 0
v -400 -496 0
v -400 -480 0
v -384 -480 0
v -576 -496 0
v -592 -496 0
v -592 -480 0
v -576 -480 0
v -592 -496 0
v -608 -496 0
v -608 -480 0
v -592 -480 0
v -624 -496 0
v -640 -496 0
v -640 -480 0
v -624 -480 0
v -496 -512 0
v -512 -512 0
v -512 -496 0
v -496 -496 0
v -512 -512 0
v -528 -512 0
v -528 -496 0
v -512 -496 0
v -528 -512 0
v -544 -512 0
v -544 -496 0
v -528 -496 0
v -544 -512 0
v -560 -512 0
v -560 -496 0
v -544 -496 0
v -560 -512 0
v -576 -512 0
v -576 -496 0
v -560 -496 0
v -576 -512 0
v -592 -512 0
v -592 -496 0
v -576 -496 0
v -624 -512 0
v -640 -512 0
v -640 -496 0
v -624 -496 0
v -640 -512 0
v -656 -512 0
v -656 -496 0
v -640 -496 0
v -656 -512 0
v -672 -512 0
v -672 -496 0
v -656 -496 0
v -672 -512 0
v -688 -512 0
v -688 -496 0
v -672 -496 0
v -688 -512 0
v -704 -512 0
v -704 -496 0
v -688 -496 0
v -704 -512 0
v -720 -512 0
v -720 -496 0
v -704 -496 0
v -496 -528 0
v -512 -528 0
v -512 -512 0
v -496 -512 0
v -512 -528 0
v -528 -528 0
v -528 -512 0
v -512 -512 0
v -528 -528 0
v -544 -528 0
v -544 -512 0
v -528 -512 0
v -544 -528 0
v -560 -528 0
v -560 -512 0
v -544 -512 0
v -576 -528 0
v -592 -528 0
v -592 -512 0
v -576 -512 0
v -624 -528 0
v -640 -528 0
v -640 -512 0
v -624 -512 0
v -640 -528 0
v -656 -528 0
v -656 -512 0
v -640 -512 0
v -672 -528 0
v -688 -528 0
v -688 -512 0
v -672 -512 0
v -688 -528 0
v -704 -528 0
v -704 -512 0
v -688 -512 0
v -704 -528 0
v -720 -528 0
v -720 -512 0
v -704 -512 0
v -448 -624 0
v -464 -624 0
v -464 -608 0
v -448 -608 0
v -464 -624 0
v -480 -624 0
v -480 -608 0
v -464 -608 0
v -480 -624 0
v -496 -624 0
v -496 -608 0
v -480 -608 0
v -496 -624 0
v -512 -624 0
v -512 -608 0
v -496 -608 0
v -512 -624 0
v -528 -624 0
v -528 -608 0
v -512 -608 0
v -528 -624 0
v -544 -624 0
v -544 -608 0
v -528 -608 0
v -544 -624 0
v -560 -624 0
v -560 -608 0
v -544 -608 0
v -560 -624 0
v -576 -624 0
v -576 -608 0
v -560 -608 0
v -576 -624 0
v -592 -624 0
v -592 -608 0
v -576 -608 0
v -592 -624 0
v -608 -624 0
v -608 -608 0
v -592 -608 0
v -608 -624 0
v -624 -624 0
v -624 -608 0
v -608 -608 0
v -624 -624 0
v -640 -624 0
v -640 -608 0
v -624 -608 0
v -448 -672 0
v -464 -672 0
v -464 -656 0
v -448 -656 0
v -464 -672 0
v -480 -672 0
v -480 -656 0
v -464 -656 0
v -480 -672 0
v -496 -672 0
v -496 -656 0
v -480 -656 0
v -496 -672 0
v -512 -672 0
v -512 -656 0
v -496 -656 0
v -512 -672 0
v -528 -672 0
v -528 -656 0
v -512 -656 0
v -528 -672 0
v -544 -672 0
v -544 -656 0
v -528 -656 0
v -544 -672 0
v -560 -672 0
v -560 -656 0
v -544 -656 0
v -560 -672 0
v -576 -672 0
v -576 -656 0
v -560 -656 0
v -576 -672 0
v -592 -672 0
v -592 -656 0
v -576 -656 0
v -592 -672 0
v -608 -672 0
v -608 -656 0
v -592 -656 0
v -608 -672 0
v -624 -672 0
v -624 -656 0
v -608 -656 0
v -624 -672 0
v -640 -672 0
v -640 -656 0
v -624 -656 0

# Texture cooridinates (Count = 33)
vt 0.3125 0.5625
vt 0.375 0.5625
vt 0.375 0.625
vt 0.3125 0.625
vt 0.4375 0.5625
vt 0.4375 0.625
vt 0.5 0.5625
vt 0.5 0.625
vt 0.3125 0.5
vt 0.375 0.5
vt 0.4375 0.5
vt 0.5 0.5
vt 0.0625 0.6875
vt 0.125 0.6875
vt 0.125 0.75
vt 0.0625 0.75
vt 0.1875 0.6875
vt 0.1875 0.75
vt 0.3125 0.4375
vt 0.375 0.4375
vt 0.4375 0.4375
vt 0.5 0.4375
vt 0.0625 0.625
vt 0.125 0.625
vt 0 0.6875
vt 0 0.75
vt 0.25 0.6875
vt 0.3125 0.6875
vt 0.3125 0.75
vt 0.25 0.75
vt 0 0.625
vt 0.1875 0.625
vt 0.25 0.625

# Normal
vn 0 0 -1

# Mesh description
g First_Stage_mesh_0002

# Faces
f 1/1/1 2/2/1 3/3/1 4/4/1
f 5/2/1 6/5/1 7/6/1 8/3/1
f 9/2/1 10/5/1 11/6/1 12/3/1
f 13/2/1 14/5/1 15/6/1 16/3/1
f 17/5/1 18/7/1 19/8/1 20/6/1
f 21/9/1 22/10/1 23/2/1 24/1/1
f 25/9/1 26/10/1 27/2/1 28/1/1
f 29/10/1 30/11/1 31/5/1 32/2/1
f 33/10/1 34/11/1 35/5/1 36/2/1
f 37/11/1 38/12/1 39/7/1 40/5/1
f 41/13/1 42/14/1 43/15/1 44/16/1
f 45/14/1 46/17/1 47/18/1 48/15/1
f 49/14/1 50/17/1 51/18/1 52/15/1
f 53/13/1 54/14/1 55/15/1 56/16/1
f 57/19/1 58/20/1 59/10/1 60/9/1
f 61/20/1 62/21/1 63/11/1 64/10/1
f 65/20/1 66/21/1 67/11/1 68/10/1
f 69/20/1 70/21/1 71/11/1 72/10/1
f 73/21/1 74/22/1 75/12/1 76/11/1
f 77/23/1 78/24/1 79/14/1 80/13/1
f 81/23/1 82/24/1 83/14/1 84/13/1
f 85/23/1 86/24/1 87/14/1 88/13/1
f 89/25/1 90/13/1 91/16/1 92/26/1
f 93/13/1 94/14/1 95/15/1 96/16/1
f 97/14/1 98/17/1 99/18/1 100/15/1
f 101/13/1 102/14/1 103/15/1 104/16/1
f 105/14/1 106/17/1 107/18/1 108/15/1
f 109/27/1 110/28/1 111/29/1 112/30/1
f 113/25/1 114/13/1 115/16/1 116/26/1
f 117/13/1 118/14/1 119/15/1 120/16/1
f 121/14/1 122/17/1 123/18/1 124/15/1
f 125/13/1 126/14/1 127/15/1 128/16/1
f 129/17/1 130/27/1 131/30/1 132/18/1
f 133/27/1 134/28/1 135/29/1 136/30/1
f 137/31/1 138/23/1 139/13/1 140/25/1
f 141/23/1 142/24/1 143/14/1 144/13/1
f 145/24/1 146/32/1 147/17/1 148/14/1
f 149/23/1 150/24/1 151/14/1 152/13/1
f 153/33/1 154/4/1 155/28/1 156/27/1
f 157/31/1 158/23/1 159/13/1 160/25/1
f 161/24/1 162/32/1 163/17/1 164/14/1
f 165/23/1 166/24/1 167/14/1 168/13/1
f 169/24/1 170/32/1 171/17/1 172/14/1
f 173/33/1 174/4/1 175/28/1 176/27/1
f 177/1/1 178/2/1 179/3/1 180/4/1
f 181/2/1 182/5/1 183/6/1 184/3/1
f 185/2/1 186/5/1 187/6/1 188/3/1
f 189/2/1 190/5/1 191/6/1 192/3/1
f 193/2/1 194/5/1 195/6/1 196/3/1
f 197/2/1 198/5/1 199/6/1 200/3/1
f 201/2/1 202/5/1 203/6/1 204/3/1
f 205/2/1 206/5/1 207/6/1 208/3/1
f 209/2/1 210/5/1 211/6/1 212/3/1
f 213/2/1 214/5/1 215/6/1 216/3/1
f 217/2/1 218/5/1 219/6/1 220/3/1
f 221/5/1 222/7/1 223/8/1 224/6/1
f 225/1/1 226/2/1 227/3/1 228/4/1
f 229/2/1 230/5/1 231/6/1 232/3/1
f 233/2/1 234/5/1 235/6/1 236/3/1
f 237/2/1 238/5/1 239/6/1 240/3/1
f 241/2/1 242/5/1 243/6/1 244/3/1
f 245/2/1 246/5/1 247/6/1 248/3/1
f 249/2/1 250/5/1 251/6/1 252/3/1
f 253/2/1 254/5/1 255/6/1 256/3/1
f 257/2/1 258/5/1 259/6/1 260/3/1
f 261/2/1 262/5/1 263/6/1 264/3/1
f 265/2/1 266/5/1 267/6/1 268/3/1
f 269/5/1 270/7/1 271/8/1 272/6/1

