# Tiled2Unity generated file. Do not modify by hand.
# Wavefront file for 'First_Stage_mesh_0008.obj'

# Vertices (Count = 504)
v -256 -576 0
v -272 -576 0
v -272 -560 0
v -256 -560 0
v -272 -576 0
v -288 -576 0
v -288 -560 0
v -272 -560 0
v -288 -576 0
v -304 -576 0
v -304 -560 0
v -288 -560 0
v -304 -576 0
v -320 -576 0
v -320 -560 0
v -304 -560 0
v -320 -576 0
v -336 -576 0
v -336 -560 0
v -320 -560 0
v -336 -576 0
v -352 -576 0
v -352 -560 0
v -336 -560 0
v -352 -576 0
v -368 -576 0
v -368 -560 0
v -352 -560 0
v -368 -576 0
v -384 -576 0
v -384 -560 0
v -368 -560 0
v -384 -576 0
v -400 -576 0
v -400 -560 0
v -384 -560 0
v -400 -576 0
v -416 -576 0
v -416 -560 0
v -400 -560 0
v -416 -576 0
v -432 -576 0
v -432 -560 0
v -416 -560 0
v -432 -576 0
v -448 -576 0
v -448 -560 0
v -432 -560 0
v -32 -592 0
v -48 -592 0
v -48 -576 0
v -32 -576 0
v -48 -592 0
v -64 -592 0
v -64 -576 0
v -48 -576 0
v -64 -592 0
v -80 -592 0
v -80 -576 0
v -64 -576 0
v -80 -592 0
v -96 -592 0
v -96 -576 0
v -80 -576 0
v -128 -592 0
v -144 -592 0
v -144 -576 0
v -128 -576 0
v -144 -592 0
v -160 -592 0
v -160 -576 0
v -144 -576 0
v -160 -592 0
v -176 -592 0
v -176 -576 0
v -160 -576 0
v -176 -592 0
v -192 -592 0
v -192 -576 0
v -176 -576 0
v -192 -592 0
v -208 -592 0
v -208 -576 0
v -192 -576 0
v -240 -592 0
v -256 -592 0
v -256 -576 0
v -240 -576 0
v -256 -592 0
v -272 -592 0
v -272 -576 0
v -256 -576 0
v -272 -592 0
v -288 -592 0
v -288 -576 0
v -272 -576 0
v -288 -592 0
v -304 -592 0
v -304 -576 0
v -288 -576 0
v -304 -592 0
v -320 -592 0
v -320 -576 0
v -304 -576 0
v -320 -592 0
v -336 -592 0
v -336 -576 0
v -320 -576 0
v -336 -592 0
v -352 -592 0
v -352 -576 0
v -336 -576 0
v -352 -592 0
v -368 -592 0
v -368 -576 0
v -352 -576 0
v -368 -592 0
v -384 -592 0
v -384 -576 0
v -368 -576 0
v -384 -592 0
v -400 -592 0
v -400 -576 0
v -384 -576 0
v -400 -592 0
v -416 -592 0
v -416 -576 0
v -400 -576 0
v -416 -592 0
v -432 -592 0
v -432 -576 0
v -416 -576 0
v -432 -592 0
v -448 -592 0
v -448 -576 0
v -432 -576 0
v -32 -608 0
v -48 -608 0
v -48 -592 0
v -32 -592 0
v -48 -608 0
v -64 -608 0
v -64 -592 0
v -48 -592 0
v -64 -608 0
v -80 -608 0
v -80 -592 0
v -64 -592 0
v -80 -608 0
v -96 -608 0
v -96 -592 0
v -80 -592 0
v -128 -608 0
v -144 -608 0
v -144 -592 0
v -128 -592 0
v -144 -608 0
v -160 -608 0
v -160 -592 0
v -144 -592 0
v -160 -608 0
v -176 -608 0
v -176 -592 0
v -160 -592 0
v -176 -608 0
v -192 -608 0
v -192 -592 0
v -176 -592 0
v -192 -608 0
v -208 -608 0
v -208 -592 0
v -192 -592 0
v -240 -608 0
v -256 -608 0
v -256 -592 0
v -240 -592 0
v -32 -624 0
v -48 -624 0
v -48 -608 0
v -32 -608 0
v -192 -624 0
v -208 -624 0
v -208 -608 0
v -192 -608 0
v -240 -624 0
v -256 -624 0
v -256 -608 0
v -240 -608 0
v -32 -640 0
v -48 -640 0
v -48 -624 0
v -32 -624 0
v -192 -640 0
v -208 -640 0
v -208 -624 0
v -192 -624 0
v -240 -640 0
v -256 -640 0
v -256 -624 0
v -240 -624 0
v -32 -656 0
v -48 -656 0
v -48 -640 0
v -32 -640 0
v -192 -656 0
v -208 -656 0
v -208 -640 0
v -192 -640 0
v -240 -656 0
v -256 -656 0
v -256 -640 0
v -240 -640 0
v -32 -672 0
v -48 -672 0
v -48 -656 0
v -32 -656 0
v -192 -672 0
v -208 -672 0
v -208 -656 0
v -192 -656 0
v -208 -672 0
v -224 -672 0
v -224 -656 0
v -208 -656 0
v -224 -672 0
v -240 -672 0
v -240 -656 0
v -224 -656 0
v -240 -672 0
v -256 -672 0
v -256 -656 0
v -240 -656 0
v -32 -688 0
v -48 -688 0
v -48 -672 0
v -32 -672 0
v -192 -688 0
v -208 -688 0
v -208 -672 0
v -192 -672 0
v -208 -688 0
v -224 -688 0
v -224 -672 0
v -208 -672 0
v -224 -688 0
v -240 -688 0
v -240 -672 0
v -224 -672 0
v -240 -688 0
v -256 -688 0
v -256 -672 0
v -240 -672 0
v -432 -688 0
v -448 -688 0
v -448 -672 0
v -432 -672 0
v -32 -704 0
v -48 -704 0
v -48 -688 0
v -32 -688 0
v -432 -704 0
v -448 -704 0
v -448 -688 0
v -432 -688 0
v -32 -720 0
v -48 -720 0
v -48 -704 0
v -32 -704 0
v -192 -720 0
v -208 -720 0
v -208 -704 0
v -192 -704 0
v -208 -720 0
v -224 -720 0
v -224 -704 0
v -208 -704 0
v -224 -720 0
v -240 -720 0
v -240 -704 0
v -224 -704 0
v -240 -720 0
v -256 -720 0
v -256 -704 0
v -240 -704 0
v -432 -720 0
v -448 -720 0
v -448 -704 0
v -432 -704 0
v -32 -736 0
v -48 -736 0
v -48 -720 0
v -32 -720 0
v -48 -736 0
v -64 -736 0
v -64 -720 0
v -48 -720 0
v -64 -736 0
v -80 -736 0
v -80 -720 0
v -64 -720 0
v -80 -736 0
v -96 -736 0
v -96 -720 0
v -80 -720 0
v -96 -736 0
v -112 -736 0
v -112 -720 0
v -96 -720 0
v -112 -736 0
v -128 -736 0
v -128 -720 0
v -112 -720 0
v -128 -736 0
v -144 -736 0
v -144 -720 0
v -128 -720 0
v -144 -736 0
v -160 -736 0
v -160 -720 0
v -144 -720 0
v -160 -736 0
v -176 -736 0
v -176 -720 0
v -160 -720 0
v -176 -736 0
v -192 -736 0
v -192 -720 0
v -176 -720 0
v -192 -736 0
v -208 -736 0
v -208 -720 0
v -192 -720 0
v -208 -736 0
v -224 -736 0
v -224 -720 0
v -208 -720 0
v -224 -736 0
v -240 -736 0
v -240 -720 0
v -224 -720 0
v -240 -736 0
v -256 -736 0
v -256 -720 0
v -240 -720 0
v -432 -736 0
v -448 -736 0
v -448 -720 0
v -432 -720 0
v -240 -752 0
v -256 -752 0
v -256 -736 0
v -240 -736 0
v -432 -752 0
v -448 -752 0
v -448 -736 0
v -432 -736 0
v -240 -768 0
v -256 -768 0
v -256 -752 0
v -240 -752 0
v -432 -768 0
v -448 -768 0
v -448 -752 0
v -432 -752 0
v -240 -784 0
v -256 -784 0
v -256 -768 0
v -240 -768 0
v -432 -784 0
v -448 -784 0
v -448 -768 0
v -432 -768 0
v -240 -800 0
v -256 -800 0
v -256 -784 0
v -240 -784 0
v -432 -800 0
v -448 -800 0
v -448 -784 0
v -432 -784 0
v -240 -816 0
v -256 -816 0
v -256 -800 0
v -240 -800 0
v -432 -816 0
v -448 -816 0
v -448 -800 0
v -432 -800 0
v -240 -832 0
v -256 -832 0
v -256 -816 0
v -240 -816 0
v -432 -832 0
v -448 -832 0
v -448 -816 0
v -432 -816 0
v -240 -848 0
v -256 -848 0
v -256 -832 0
v -240 -832 0
v -432 -848 0
v -448 -848 0
v -448 -832 0
v -432 -832 0
v -240 -864 0
v -256 -864 0
v -256 -848 0
v -240 -848 0
v -256 -864 0
v -272 -864 0
v -272 -848 0
v -256 -848 0
v -272 -864 0
v -288 -864 0
v -288 -848 0
v -272 -848 0
v -288 -864 0
v -304 -864 0
v -304 -848 0
v -288 -848 0
v -304 -864 0
v -320 -864 0
v -320 -848 0
v -304 -848 0
v -320 -864 0
v -336 -864 0
v -336 -848 0
v -320 -848 0
v -336 -864 0
v -352 -864 0
v -352 -848 0
v -336 -848 0
v -352 -864 0
v -368 -864 0
v -368 -848 0
v -352 -848 0
v -368 -864 0
v -384 -864 0
v -384 -848 0
v -368 -848 0
v -384 -864 0
v -400 -864 0
v -400 -848 0
v -384 -848 0
v -400 -864 0
v -416 -864 0
v -416 -848 0
v -400 -848 0
v -416 -864 0
v -432 -864 0
v -432 -848 0
v -416 -848 0
v -432 -864 0
v -448 -864 0
v -448 -848 0
v -432 -848 0
v -256 -880 0
v -272 -880 0
v -272 -864 0
v -256 -864 0
v -272 -880 0
v -288 -880 0
v -288 -864 0
v -272 -864 0
v -288 -880 0
v -304 -880 0
v -304 -864 0
v -288 -864 0
v -304 -880 0
v -320 -880 0
v -320 -864 0
v -304 -864 0
v -320 -880 0
v -336 -880 0
v -336 -864 0
v -320 -864 0
v -336 -880 0
v -352 -880 0
v -352 -864 0
v -336 -864 0
v -352 -880 0
v -368 -880 0
v -368 -864 0
v -352 -864 0
v -368 -880 0
v -384 -880 0
v -384 -864 0
v -368 -864 0
v -384 -880 0
v -400 -880 0
v -400 -864 0
v -384 -864 0
v -400 -880 0
v -416 -880 0
v -416 -864 0
v -400 -864 0
v -416 -880 0
v -432 -880 0
v -432 -864 0
v -416 -864 0
v -432 -880 0
v -448 -880 0
v -448 -864 0
v -432 -864 0

# Texture cooridinates (Count = 24)
vt 0.0625 0.8125
vt 0.125 0.8125
vt 0.125 0.875
vt 0.0625 0.875
vt 0 0.9375
vt 0.0625 0.9375
vt 0.0625 1
vt 0 1
vt 0.25 0.8125
vt 0.3125 0.8125
vt 0.3125 0.875
vt 0.25 0.875
vt 0.1875 0.8125
vt 0.1875 0.875
vt 0.125 0.9375
vt 0.1875 0.9375
vt 0.1875 1
vt 0.125 1
vt 0 0.8125
vt 0 0.875
vt 0.0625 0.75
vt 0.125 0.75
vt 0.25 0.9375
vt 0.25 1

# Normal
vn 0 0 -1

# Mesh description
g First_Stage_mesh_0008

# Faces
f 1/1/1 2/2/1 3/3/1 4/4/1
f 5/1/1 6/2/1 7/3/1 8/4/1
f 9/1/1 10/2/1 11/3/1 12/4/1
f 13/1/1 14/2/1 15/3/1 16/4/1
f 17/1/1 18/2/1 19/3/1 20/4/1
f 21/1/1 22/2/1 23/3/1 24/4/1
f 25/1/1 26/2/1 27/3/1 28/4/1
f 29/1/1 30/2/1 31/3/1 32/4/1
f 33/1/1 34/2/1 35/3/1 36/4/1
f 37/1/1 38/2/1 39/3/1 40/4/1
f 41/1/1 42/2/1 43/3/1 44/4/1
f 45/1/1 46/2/1 47/3/1 48/4/1
f 49/5/1 50/6/1 51/7/1 52/8/1
f 53/1/1 54/2/1 55/3/1 56/4/1
f 57/1/1 58/2/1 59/3/1 60/4/1
f 61/9/1 62/10/1 63/11/1 64/12/1
f 65/13/1 66/9/1 67/12/1 68/14/1
f 69/1/1 70/2/1 71/3/1 72/4/1
f 73/1/1 74/2/1 75/3/1 76/4/1
f 77/1/1 78/2/1 79/3/1 80/4/1
f 81/15/1 82/16/1 83/17/1 84/18/1
f 85/19/1 86/1/1 87/4/1 88/20/1
f 89/21/1 90/22/1 91/2/1 92/1/1
f 93/21/1 94/22/1 95/2/1 96/1/1
f 97/21/1 98/22/1 99/2/1 100/1/1
f 101/21/1 102/22/1 103/2/1 104/1/1
f 105/21/1 106/22/1 107/2/1 108/1/1
f 109/21/1 110/22/1 111/2/1 112/1/1
f 113/21/1 114/22/1 115/2/1 116/1/1
f 117/21/1 118/22/1 119/2/1 120/1/1
f 121/21/1 122/22/1 123/2/1 124/1/1
f 125/21/1 126/22/1 127/2/1 128/1/1
f 129/21/1 130/22/1 131/2/1 132/1/1
f 133/21/1 134/22/1 135/2/1 136/1/1
f 137/19/1 138/1/1 139/4/1 140/20/1
f 141/21/1 142/22/1 143/2/1 144/1/1
f 145/21/1 146/22/1 147/2/1 148/1/1
f 149/21/1 150/22/1 151/2/1 152/1/1
f 153/21/1 154/22/1 155/2/1 156/1/1
f 157/21/1 158/22/1 159/2/1 160/1/1
f 161/21/1 162/22/1 163/2/1 164/1/1
f 165/21/1 166/22/1 167/2/1 168/1/1
f 169/2/1 170/13/1 171/14/1 172/3/1
f 173/19/1 174/1/1 175/4/1 176/20/1
f 177/19/1 178/1/1 179/4/1 180/20/1
f 181/2/1 182/13/1 183/14/1 184/3/1
f 185/19/1 186/1/1 187/4/1 188/20/1
f 189/19/1 190/1/1 191/4/1 192/20/1
f 193/2/1 194/13/1 195/14/1 196/3/1
f 197/19/1 198/1/1 199/4/1 200/20/1
f 201/19/1 202/1/1 203/4/1 204/20/1
f 205/2/1 206/13/1 207/14/1 208/3/1
f 209/19/1 210/1/1 211/4/1 212/20/1
f 213/19/1 214/1/1 215/4/1 216/20/1
f 217/13/1 218/9/1 219/12/1 220/14/1
f 221/1/1 222/2/1 223/3/1 224/4/1
f 225/1/1 226/2/1 227/3/1 228/4/1
f 229/9/1 230/10/1 231/11/1 232/12/1
f 233/19/1 234/1/1 235/4/1 236/20/1
f 237/21/1 238/22/1 239/2/1 240/1/1
f 241/21/1 242/22/1 243/2/1 244/1/1
f 245/21/1 246/22/1 247/2/1 248/1/1
f 249/21/1 250/22/1 251/2/1 252/1/1
f 253/19/1 254/1/1 255/4/1 256/20/1
f 257/19/1 258/1/1 259/4/1 260/20/1
f 261/19/1 262/1/1 263/4/1 264/20/1
f 265/19/1 266/1/1 267/4/1 268/20/1
f 269/16/1 270/23/1 271/24/1 272/17/1
f 273/1/1 274/2/1 275/3/1 276/4/1
f 277/1/1 278/2/1 279/3/1 280/4/1
f 281/1/1 282/2/1 283/3/1 284/4/1
f 285/19/1 286/1/1 287/4/1 288/20/1
f 289/19/1 290/1/1 291/4/1 292/20/1
f 293/1/1 294/2/1 295/3/1 296/4/1
f 297/1/1 298/2/1 299/3/1 300/4/1
f 301/1/1 302/2/1 303/3/1 304/4/1
f 305/1/1 306/2/1 307/3/1 308/4/1
f 309/1/1 310/2/1 311/3/1 312/4/1
f 313/1/1 314/2/1 315/3/1 316/4/1
f 317/1/1 318/2/1 319/3/1 320/4/1
f 321/1/1 322/2/1 323/3/1 324/4/1
f 325/1/1 326/2/1 327/3/1 328/4/1
f 329/14/1 330/12/1 331/23/1 332/16/1
f 333/21/1 334/22/1 335/2/1 336/1/1
f 337/21/1 338/22/1 339/2/1 340/1/1
f 341/4/1 342/3/1 343/15/1 344/6/1
f 345/19/1 346/1/1 347/4/1 348/20/1
f 349/19/1 350/1/1 351/4/1 352/20/1
f 353/19/1 354/1/1 355/4/1 356/20/1
f 357/19/1 358/1/1 359/4/1 360/20/1
f 361/19/1 362/1/1 363/4/1 364/20/1
f 365/19/1 366/1/1 367/4/1 368/20/1
f 369/19/1 370/1/1 371/4/1 372/20/1
f 373/19/1 374/1/1 375/4/1 376/20/1
f 377/19/1 378/1/1 379/4/1 380/20/1
f 381/19/1 382/1/1 383/4/1 384/20/1
f 385/19/1 386/1/1 387/4/1 388/20/1
f 389/19/1 390/1/1 391/4/1 392/20/1
f 393/19/1 394/1/1 395/4/1 396/20/1
f 397/19/1 398/1/1 399/4/1 400/20/1
f 401/19/1 402/1/1 403/4/1 404/20/1
f 405/19/1 406/1/1 407/4/1 408/20/1
f 409/6/1 410/15/1 411/18/1 412/7/1
f 413/6/1 414/15/1 415/18/1 416/7/1
f 417/6/1 418/15/1 419/18/1 420/7/1
f 421/6/1 422/15/1 423/18/1 424/7/1
f 425/6/1 426/15/1 427/18/1 428/7/1
f 429/6/1 430/15/1 431/18/1 432/7/1
f 433/6/1 434/15/1 435/18/1 436/7/1
f 437/6/1 438/15/1 439/18/1 440/7/1
f 441/6/1 442/15/1 443/18/1 444/7/1
f 445/6/1 446/15/1 447/18/1 448/7/1
f 449/6/1 450/15/1 451/18/1 452/7/1
f 453/9/1 454/10/1 455/11/1 456/12/1
f 457/21/1 458/22/1 459/2/1 460/1/1
f 461/21/1 462/22/1 463/2/1 464/1/1
f 465/21/1 466/22/1 467/2/1 468/1/1
f 469/21/1 470/22/1 471/2/1 472/1/1
f 473/21/1 474/22/1 475/2/1 476/1/1
f 477/21/1 478/22/1 479/2/1 480/1/1
f 481/21/1 482/22/1 483/2/1 484/1/1
f 485/21/1 486/22/1 487/2/1 488/1/1
f 489/21/1 490/22/1 491/2/1 492/1/1
f 493/21/1 494/22/1 495/2/1 496/1/1
f 497/21/1 498/22/1 499/2/1 500/1/1
f 501/21/1 502/22/1 503/2/1 504/1/1

