# Tiled2Unity generated file. Do not modify by hand.
# Wavefront file for 'First_Stage_mesh_0004.obj'

# Vertices (Count = 52)
v -64 -208 0
v -80 -208 0
v -80 -192 0
v -64 -192 0
v -288 -208 0
v -304 -208 0
v -304 -192 0
v -288 -192 0
v -416 -208 0
v -432 -208 0
v -432 -192 0
v -416 -192 0
v -64 -224 0
v -80 -224 0
v -80 -208 0
v -64 -208 0
v -288 -224 0
v -304 -224 0
v -304 -208 0
v -288 -208 0
v -416 -224 0
v -432 -224 0
v -432 -208 0
v -416 -208 0
v -336 -368 0
v -352 -368 0
v -352 -352 0
v -336 -352 0
v -368 -368 0
v -384 -368 0
v -384 -352 0
v -368 -352 0
v -336 -384 0
v -352 -384 0
v -352 -368 0
v -336 -368 0
v -368 -384 0
v -384 -384 0
v -384 -368 0
v -368 -368 0
v -208 -464 0
v -224 -464 0
v -224 -448 0
v -208 -448 0
v -208 -480 0
v -224 -480 0
v -224 -464 0
v -208 -464 0
v -208 -496 0
v -224 -496 0
v -224 -480 0
v -208 -480 0

# Texture cooridinates (Count = 9)
vt 0.375 0.5625
vt 0.4375 0.5625
vt 0.4375 0.625
vt 0.375 0.625
vt 0.375 0.5
vt 0.4375 0.5
vt 0.3125 0.5625
vt 0.3125 0.625
vt 0.3125 0.5

# Normal
vn 0 0 -1

# Mesh description
g First_Stage_mesh_0004

# Faces
f 1/1/1 2/2/1 3/3/1 4/4/1
f 5/1/1 6/2/1 7/3/1 8/4/1
f 9/1/1 10/2/1 11/3/1 12/4/1
f 13/5/1 14/6/1 15/2/1 16/1/1
f 17/5/1 18/6/1 19/2/1 20/1/1
f 21/5/1 22/6/1 23/2/1 24/1/1
f 25/7/1 26/1/1 27/4/1 28/8/1
f 29/7/1 30/1/1 31/4/1 32/8/1
f 33/9/1 34/5/1 35/1/1 36/7/1
f 37/9/1 38/5/1 39/1/1 40/7/1
f 41/7/1 42/1/1 43/4/1 44/8/1
f 45/5/1 46/6/1 47/2/1 48/1/1
f 49/5/1 50/6/1 51/2/1 52/1/1

